<svg width="276" height="103" viewBox="0 0 276 103" fill="none" xmlns="http://www.w3.org/2000/svg">
<path d="M135.999 77.1813C135.953 77.4103 135.827 77.5247 135.62 77.5247H128.099C128.075 77.5247 128.041 77.536 127.995 77.559C127.972 77.582 127.961 77.6163 127.961 77.662L127.029 85.1123C127.029 85.204 127.075 85.2497 127.167 85.2497H131.756C131.986 85.2497 132.077 85.364 132.032 85.593L131.756 87.756C131.756 87.8476 131.721 87.9277 131.652 87.9963C131.583 88.065 131.503 88.0993 131.411 88.0993H126.822C126.753 88.0993 126.695 88.145 126.65 88.2367L125.408 98.365C125.362 98.594 125.235 98.7083 125.028 98.7083H122.475C122.383 98.7083 122.303 98.674 122.234 98.6053C122.188 98.5367 122.176 98.4566 122.199 98.365L125.063 75.0183C125.086 74.9267 125.132 74.8467 125.201 74.778C125.27 74.7093 125.35 74.675 125.442 74.675H135.965C136.195 74.675 136.286 74.7894 136.241 75.0183L135.999 77.1813ZM144.927 81.576C144.972 81.347 145.099 81.2327 145.306 81.2327H147.859C148.089 81.2327 148.181 81.347 148.135 81.576L146.065 98.365C146.065 98.4566 146.031 98.5367 145.962 98.6053C145.893 98.674 145.812 98.7083 145.72 98.7083H143.167C142.96 98.7083 142.857 98.594 142.857 98.365L142.995 97.3693C142.995 97.3007 142.971 97.2663 142.926 97.2663C142.902 97.2663 142.879 97.2893 142.857 97.335C142.051 98.4107 140.901 98.9487 139.407 98.9487C138.21 98.9487 137.256 98.6167 136.543 97.953C135.83 97.2663 135.474 96.2363 135.474 94.863C135.474 94.657 135.496 94.325 135.543 93.8673L137.061 81.576C137.083 81.4844 137.13 81.4043 137.199 81.3357C137.268 81.267 137.348 81.2327 137.44 81.2327H139.993C140.2 81.2327 140.304 81.347 140.304 81.576L138.855 93.1463C138.831 93.3294 138.82 93.5697 138.82 93.8673C138.82 95.355 139.476 96.099 140.787 96.099C141.522 96.099 142.132 95.8243 142.615 95.275C143.121 94.7027 143.431 93.9246 143.547 92.9403L144.927 81.576ZM158.518 80.9923C159.737 80.9923 160.668 81.37 161.312 82.1253C161.956 82.8577 162.278 83.9107 162.278 85.284C162.278 85.696 162.244 86.131 162.175 86.5887L160.726 98.365C160.726 98.4566 160.691 98.5367 160.622 98.6053C160.553 98.674 160.461 98.7083 160.346 98.7083H157.828C157.712 98.7083 157.621 98.674 157.552 98.6053C157.505 98.5367 157.494 98.4566 157.517 98.365L158.932 86.8633C158.954 86.703 158.966 86.4627 158.966 86.1423C158.966 85.41 158.794 84.849 158.449 84.46C158.126 84.048 157.655 83.842 157.034 83.842C156.298 83.842 155.689 84.1053 155.206 84.6317C154.723 85.1353 154.412 85.8563 154.274 86.7947C154.251 86.932 154.228 87.0007 154.205 87.0007L152.791 98.365C152.791 98.4566 152.756 98.5367 152.687 98.6053C152.618 98.674 152.526 98.7083 152.411 98.7083H149.893C149.686 98.7083 149.582 98.594 149.582 98.365L151.652 81.576C151.698 81.347 151.825 81.2327 152.032 81.2327H154.585C154.814 81.2327 154.907 81.347 154.861 81.576L154.757 82.503C154.757 82.5487 154.78 82.583 154.826 82.606C154.872 82.606 154.918 82.5717 154.964 82.503C155.884 81.496 157.069 80.9923 158.518 80.9923ZM169.28 98.983C167.716 98.983 166.485 98.5824 165.588 97.7813C164.714 96.9573 164.277 95.8357 164.277 94.4167C164.277 94.2336 164.3 93.936 164.346 93.524L165.209 86.417C165.416 84.792 166.094 83.4757 167.244 82.4687C168.394 81.4616 169.82 80.958 171.522 80.958C173.086 80.958 174.317 81.37 175.214 82.194C176.134 83.018 176.594 84.0823 176.594 85.387C176.594 85.6846 176.582 85.902 176.559 86.0393L176.49 86.4857C176.444 86.7146 176.318 86.829 176.111 86.829L173.558 86.932C173.351 86.932 173.247 86.8176 173.247 86.5887L173.316 86.2453C173.385 85.5816 173.213 85.0093 172.799 84.5287C172.408 84.048 171.867 83.8077 171.177 83.8077C170.464 83.8077 169.855 84.071 169.349 84.5973C168.843 85.1237 168.532 85.799 168.417 86.623L167.589 93.318C167.566 93.4324 167.555 93.5927 167.555 93.7987C167.555 94.5083 167.739 95.0804 168.107 95.5153C168.475 95.9273 168.981 96.1333 169.625 96.1333C170.338 96.1333 170.947 95.893 171.453 95.4123C171.982 94.9317 172.293 94.3594 172.385 93.6957L172.419 93.3523C172.465 93.1234 172.592 93.009 172.799 93.009L175.352 93.0433C175.582 93.0433 175.674 93.1577 175.628 93.3867L175.559 93.9017C175.375 95.3894 174.708 96.614 173.558 97.5753C172.431 98.5137 171.005 98.983 169.28 98.983ZM182.126 78.486C181.551 78.486 181.091 78.3143 180.746 77.971C180.401 77.6277 180.229 77.1813 180.229 76.632C180.229 75.8996 180.459 75.293 180.919 74.8123C181.402 74.3317 181.977 74.0913 182.644 74.0913C183.219 74.0913 183.679 74.263 184.024 74.6063C184.369 74.9497 184.541 75.4074 184.541 75.9797C184.541 76.6893 184.3 77.2843 183.817 77.765C183.357 78.2457 182.793 78.486 182.126 78.486ZM178.4 98.7083C178.285 98.7083 178.193 98.674 178.124 98.6053C178.078 98.5367 178.067 98.4566 178.09 98.365L180.16 81.576C180.206 81.347 180.332 81.2327 180.539 81.2327H183.092C183.322 81.2327 183.414 81.347 183.368 81.576L181.298 98.365C181.252 98.594 181.126 98.7083 180.919 98.7083H178.4ZM190.236 98.983C188.649 98.983 187.407 98.571 186.51 97.747C185.637 96.923 185.199 95.8014 185.199 94.3823C185.199 94.222 185.223 93.936 185.268 93.524L186.131 86.417C186.338 84.792 187.017 83.4757 188.166 82.4687C189.317 81.4616 190.754 80.958 192.479 80.958C194.066 80.958 195.308 81.3814 196.205 82.2283C197.102 83.0523 197.55 84.1624 197.55 85.5587C197.55 85.719 197.528 86.005 197.481 86.417L196.619 93.524C196.412 95.172 195.734 96.4996 194.583 97.5067C193.434 98.491 191.985 98.983 190.236 98.983ZM190.616 96.099C191.329 96.099 191.95 95.8357 192.479 95.3093C193.008 94.783 193.319 94.1077 193.41 93.2837L194.238 86.623C194.262 86.5086 194.273 86.3597 194.273 86.1767C194.273 85.467 194.078 84.895 193.686 84.46C193.296 84.025 192.778 83.8077 192.134 83.8077C191.421 83.8077 190.8 84.071 190.271 84.5973C189.765 85.1237 189.455 85.799 189.339 86.623L188.511 93.2837C188.489 93.398 188.477 93.5583 188.477 93.7643C188.477 94.474 188.673 95.046 189.063 95.481C189.455 95.893 189.972 96.099 190.616 96.099ZM208.111 80.9923C209.33 80.9923 210.262 81.37 210.906 82.1253C211.55 82.8577 211.872 83.9107 211.872 85.284C211.872 85.696 211.837 86.131 211.768 86.5887L210.319 98.365C210.319 98.4566 210.285 98.5367 210.216 98.6053C210.147 98.674 210.055 98.7083 209.94 98.7083H207.421C207.306 98.7083 207.214 98.674 207.145 98.6053C207.099 98.5367 207.088 98.4566 207.111 98.365L208.525 86.8633C208.548 86.703 208.56 86.4627 208.56 86.1423C208.56 85.41 208.387 84.849 208.042 84.46C207.72 84.048 207.249 83.842 206.628 83.842C205.892 83.842 205.282 84.1053 204.799 84.6317C204.316 85.1353 204.006 85.8563 203.868 86.7947C203.845 86.932 203.822 87.0007 203.799 87.0007L202.384 98.365C202.384 98.4566 202.35 98.5367 202.281 98.6053C202.212 98.674 202.12 98.7083 202.005 98.7083H199.486C199.279 98.7083 199.176 98.594 199.176 98.365L201.246 81.576C201.292 81.347 201.418 81.2327 201.625 81.2327H204.178C204.408 81.2327 204.5 81.347 204.454 81.576L204.351 82.503C204.351 82.5487 204.374 82.583 204.42 82.606C204.466 82.606 204.512 82.5717 204.558 82.503C205.478 81.496 206.662 80.9923 208.111 80.9923ZM223.394 81.576C223.416 81.4844 223.463 81.4043 223.532 81.3357C223.601 81.267 223.681 81.2327 223.773 81.2327H226.326C226.533 81.2327 226.637 81.347 226.637 81.576L224.532 98.365C224.532 98.4566 224.498 98.5367 224.429 98.6053C224.36 98.674 224.278 98.7083 224.187 98.7083H221.632C221.427 98.7083 221.324 98.594 221.324 98.365L221.496 97.1633C221.496 97.0947 221.473 97.0603 221.427 97.0603C221.404 97.0374 221.369 97.049 221.324 97.0947C220.886 97.7356 220.358 98.2163 219.737 98.5367C219.116 98.8343 218.461 98.983 217.771 98.983C216.505 98.983 215.538 98.6053 214.871 97.85C214.204 97.0717 213.871 96.0074 213.871 94.657C213.871 94.451 213.894 94.0733 213.94 93.524L214.802 86.417C215.009 84.7233 215.561 83.3957 216.459 82.4343C217.378 81.45 218.564 80.958 220.013 80.958C220.679 80.958 221.277 81.1183 221.807 81.4387C222.359 81.7363 222.784 82.2054 223.083 82.8463C223.129 82.892 223.163 82.915 223.187 82.915C223.232 82.892 223.256 82.8463 223.256 82.7777L223.394 81.576ZM219.219 96.1333C219.931 96.1333 220.541 95.87 221.048 95.3437C221.553 94.8173 221.852 94.142 221.945 93.318L222.773 86.623C222.795 86.5086 222.807 86.3483 222.807 86.1423C222.807 85.4327 222.622 84.872 222.255 84.46C221.887 84.025 221.393 83.8077 220.772 83.8077C220.058 83.8077 219.448 84.071 218.943 84.5973C218.437 85.1237 218.126 85.799 218.012 86.623L217.184 93.318C217.16 93.4324 217.149 93.5927 217.149 93.7987C217.149 94.4853 217.333 95.046 217.701 95.481C218.092 95.916 218.598 96.1333 219.219 96.1333ZM219.909 79.0353C219.793 79.0353 219.713 79.001 219.668 78.9323C219.621 78.8407 219.644 78.7377 219.737 78.6233L222.255 74.9153C222.415 74.755 222.566 74.675 222.704 74.675H224.739C224.877 74.675 224.957 74.7207 224.981 74.8123C225.026 74.881 225.003 74.9726 224.912 75.087L221.979 78.8293C221.887 78.9667 221.749 79.0353 221.565 79.0353H219.909ZM236.405 81.061C236.957 81.061 237.427 81.187 237.819 81.4387C237.957 81.553 237.992 81.702 237.923 81.885L237.095 84.4943C237.026 84.7003 236.888 84.769 236.681 84.7003C236.405 84.586 236.094 84.5287 235.749 84.5287C235.611 84.5287 235.404 84.5516 235.128 84.5973C234.415 84.666 233.783 85.055 233.231 85.7647C232.7 86.4743 232.379 87.3326 232.265 88.3397L231.023 98.365C231.023 98.4566 230.988 98.5367 230.919 98.6053C230.85 98.674 230.758 98.7083 230.643 98.7083H228.125C227.918 98.7083 227.814 98.594 227.814 98.365L229.884 81.576C229.93 81.347 230.057 81.2327 230.264 81.2327H232.817C233.045 81.2327 233.138 81.347 233.093 81.576L232.851 83.5673C232.851 83.636 232.862 83.6817 232.886 83.7047C232.931 83.7047 232.966 83.6703 232.989 83.6017C233.863 81.908 235.001 81.061 236.405 81.061ZM242.231 78.486C241.657 78.486 241.196 78.3143 240.851 77.971C240.506 77.6277 240.333 77.1813 240.333 76.632C240.333 75.8996 240.564 75.293 241.023 74.8123C241.506 74.3317 242.082 74.0913 242.749 74.0913C243.324 74.0913 243.784 74.263 244.129 74.6063C244.474 74.9497 244.646 75.4074 244.646 75.9797C244.646 76.6893 244.404 77.2843 243.922 77.765C243.462 78.2457 242.899 78.486 242.231 78.486ZM238.505 98.7083C238.391 98.7083 238.298 98.674 238.229 98.6053C238.184 98.5367 238.173 98.4566 238.195 98.365L240.265 81.576C240.312 81.347 240.437 81.2327 240.644 81.2327H243.197C243.428 81.2327 243.52 81.347 243.473 81.576L241.403 98.365C241.358 98.594 241.23 98.7083 241.023 98.7083H238.505ZM250.343 98.983C248.756 98.983 247.514 98.571 246.617 97.747C245.741 96.923 245.306 95.8014 245.306 94.3823C245.306 94.222 245.327 93.936 245.375 93.524L246.237 86.417C246.444 84.792 247.121 83.4757 248.273 82.4687C249.422 81.4616 250.86 80.958 252.585 80.958C254.172 80.958 255.414 81.3814 256.311 82.2283C257.208 83.0523 257.657 84.1624 257.657 85.5587C257.657 85.719 257.633 86.005 257.588 86.417L256.725 93.524C256.518 95.172 255.839 96.4996 254.69 97.5067C253.538 98.491 252.089 98.983 250.343 98.983ZM250.722 96.099C251.434 96.099 252.055 95.8357 252.585 95.3093C253.114 94.783 253.424 94.1077 253.517 93.2837L254.345 86.623C254.366 86.5086 254.379 86.3597 254.379 86.1767C254.379 85.467 254.183 84.895 253.793 84.46C253.4 84.025 252.883 83.8077 252.24 83.8077C251.527 83.8077 250.906 84.071 250.377 84.5973C249.871 85.1237 249.56 85.799 249.446 86.623L248.618 93.2837C248.594 93.398 248.583 93.5583 248.583 93.7643C248.583 94.474 248.777 95.046 249.17 95.481C249.56 95.893 250.078 96.099 250.722 96.099ZM264.076 98.9143C262.558 98.9143 261.363 98.5596 260.488 97.85C259.615 97.1404 259.177 96.1677 259.177 94.9317C259.177 94.634 259.19 94.4167 259.211 94.2793L259.246 93.9703C259.27 93.8787 259.315 93.7987 259.384 93.73C259.453 93.6613 259.535 93.627 259.625 93.627H262.006C262.122 93.627 262.202 93.6613 262.247 93.73C262.316 93.7987 262.34 93.8787 262.316 93.9703L262.282 94.2107C262.191 94.8287 262.351 95.355 262.765 95.79C263.179 96.202 263.744 96.408 264.455 96.408C265.193 96.408 265.79 96.179 266.249 95.7213C266.732 95.2407 266.974 94.657 266.974 93.9703C266.974 93.3294 266.745 92.8487 266.284 92.5283C265.825 92.185 265.089 91.7844 264.076 91.3267C263.341 90.9833 262.72 90.6514 262.213 90.331C261.73 90.0106 261.294 89.5527 260.902 88.9577C260.535 88.3626 260.35 87.63 260.35 86.7603C260.35 86.44 260.363 86.188 260.384 86.005C260.57 84.4486 261.191 83.2354 262.247 82.3657C263.306 81.496 264.641 81.061 266.249 81.061C267.746 81.061 268.906 81.4387 269.734 82.194C270.562 82.9264 270.976 83.945 270.976 85.2497C270.976 85.593 270.965 85.8563 270.941 86.0393V86.1423C270.896 86.3713 270.769 86.4857 270.562 86.4857H268.25C268.022 86.4857 267.929 86.3713 267.974 86.1423V85.902L268.009 85.593C268.009 85.0437 267.826 84.586 267.457 84.2197C267.09 83.8534 266.594 83.6703 265.973 83.6703C265.307 83.6703 264.744 83.8877 264.283 84.3227C263.824 84.7576 263.548 85.284 263.455 85.902C263.41 86.3827 263.502 86.7833 263.731 87.1037C263.962 87.424 264.248 87.6873 264.593 87.8933C264.962 88.0764 265.538 88.351 266.318 88.7173C267.101 89.1064 267.746 89.4727 268.25 89.816C268.781 90.1364 269.24 90.5943 269.63 91.1893C270.023 91.7844 270.217 92.5054 270.217 93.3523C270.217 95.0233 269.654 96.3737 268.526 97.4037C267.401 98.4107 265.917 98.9143 264.076 98.9143Z" fill="#FFFFEE"/>
<path d="M135.266 60.7013C131.695 60.7013 128.849 59.6456 126.727 57.5341C124.605 55.4226 123.545 52.5901 123.545 49.0366C123.545 48.6246 123.596 47.9036 123.7 46.8736L124.01 44.8651C124.01 44.6591 124.088 44.4788 124.243 44.3243C124.398 44.1698 124.605 44.0926 124.864 44.0926H130.376C130.634 44.0926 130.815 44.1698 130.919 44.3243C131.074 44.4788 131.126 44.6591 131.074 44.8651L130.841 46.4873C130.79 46.7963 130.764 47.2598 130.764 47.8778C130.764 49.8863 131.229 51.4571 132.161 52.5901C133.144 53.7231 134.438 54.2896 136.042 54.2896C138.06 54.2896 139.768 53.4913 141.165 51.8948C142.614 50.2468 143.339 48.1868 143.339 45.7148C143.339 44.4788 143.054 43.3716 142.485 42.3931C141.968 41.3631 141.269 40.4361 140.389 39.6121C139.509 38.7366 138.086 37.5006 136.12 35.9041C133.998 34.1016 132.342 32.5823 131.152 31.3463C129.962 30.1103 128.952 28.6683 128.124 27.0203C127.296 25.3208 126.882 23.3896 126.882 21.2266C126.882 18.0336 127.529 15.2526 128.823 12.8836C130.117 10.4631 131.876 8.60908 134.102 7.32158C136.379 6.03408 138.914 5.39033 141.709 5.39033C145.331 5.39033 148.178 6.47183 150.248 8.63483C152.369 10.7463 153.43 13.6303 153.43 17.2868C153.43 17.7503 153.378 18.5486 153.275 19.6816L153.042 21.6128C152.939 22.1278 152.654 22.3853 152.188 22.3853H146.599C146.392 22.3853 146.211 22.3081 146.056 22.1536C145.952 21.9991 145.926 21.8188 145.978 21.6128L146.211 19.5271C146.263 19.1666 146.289 18.6516 146.289 17.9821C146.289 16.0766 145.797 14.5831 144.814 13.5016C143.882 12.3686 142.589 11.8021 140.933 11.8021C138.966 11.8021 137.31 12.5746 135.965 14.1196C134.671 15.6131 134.024 17.6731 134.024 20.2996C134.024 21.9476 134.49 23.4153 135.421 24.7028C136.404 25.9903 138.19 27.7156 140.777 29.8786C143.261 31.9386 145.15 33.6381 146.444 34.9771C147.738 36.2646 148.747 37.6808 149.471 39.2258C150.196 40.7193 150.558 42.4188 150.558 44.3243C150.558 44.6848 150.506 45.3801 150.403 46.4101C149.885 50.7361 148.203 54.2123 145.357 56.8388C142.563 59.4138 139.199 60.7013 135.266 60.7013ZM161.515 60.0833C161.05 60.0833 160.817 59.8516 160.817 59.3881L157.401 21.6128C157.401 21.0463 157.66 20.7631 158.177 20.7631H163.689C164.154 20.7631 164.413 20.9948 164.465 21.4583L165.785 48.1096C165.836 48.2126 165.888 48.2641 165.94 48.2641C165.992 48.2641 166.043 48.2126 166.095 48.1096L174.168 21.4583C174.272 20.9948 174.556 20.7631 175.022 20.7631H179.99C180.508 20.7631 180.766 20.9948 180.766 21.4583L182.396 48.1096C182.396 48.2126 182.422 48.2641 182.474 48.2641C182.578 48.2641 182.655 48.2126 182.707 48.1096L190.702 21.4583C190.857 20.9948 191.168 20.7631 191.634 20.7631L197.068 20.8403C197.275 20.8403 197.43 20.9176 197.533 21.0721C197.688 21.2266 197.714 21.4326 197.611 21.6901L184.803 59.3881C184.751 59.8516 184.466 60.0833 183.949 60.0833H178.282C177.765 60.0833 177.506 59.8516 177.506 59.3881L175.876 34.0501C175.876 33.9471 175.824 33.8956 175.721 33.8956C175.669 33.8956 175.617 33.9471 175.565 34.0501L167.88 59.3881C167.725 59.8516 167.415 60.0833 166.949 60.0833H161.515ZM207.905 14.5831C206.611 14.5831 205.576 14.1968 204.8 13.4243C204.024 12.6518 203.636 11.6476 203.636 10.4116C203.636 8.76358 204.153 7.39883 205.188 6.31733C206.275 5.23583 207.569 4.69508 209.07 4.69508C210.363 4.69508 211.398 5.08133 212.175 5.85383C212.951 6.62633 213.339 7.65633 213.339 8.94383C213.339 10.5403 212.796 11.8793 211.709 12.9608C210.674 14.0423 209.406 14.5831 207.905 14.5831ZM199.522 60.0833C199.263 60.0833 199.056 60.0061 198.901 59.8516C198.797 59.6971 198.771 59.5168 198.823 59.3108L203.481 21.5356C203.584 21.0206 203.869 20.7631 204.335 20.7631H210.079C210.596 20.7631 210.803 21.0206 210.7 21.5356L206.042 59.3108C205.939 59.8258 205.654 60.0833 205.188 60.0833H199.522ZM228.017 20.4541C228.017 20.6601 228.121 20.7631 228.328 20.7631H233.606C234.124 20.7631 234.331 21.0206 234.227 21.5356L233.761 25.3981C233.658 25.9131 233.373 26.1706 232.907 26.1706H227.629C227.422 26.1706 227.318 26.2736 227.318 26.4796L223.282 59.3108C223.178 59.8258 222.894 60.0833 222.428 60.0833H216.761C216.244 60.0833 216.037 59.8258 216.14 59.3108L220.177 26.4796C220.177 26.2736 220.073 26.1706 219.866 26.1706H217.072C216.865 26.1706 216.684 26.0933 216.529 25.9388C216.425 25.7843 216.399 25.6041 216.451 25.3981L216.917 21.5356C217.02 21.0206 217.305 20.7631 217.771 20.7631H220.565C220.772 20.7631 220.876 20.6601 220.876 20.4541L221.186 18.4456C221.704 13.8621 222.997 10.5918 225.067 8.63483C227.189 6.62633 230.346 5.62208 234.538 5.62208H235.547C236.064 5.62208 236.271 5.87958 236.168 6.39458L235.469 11.1068C235.417 11.6218 235.133 11.8793 234.615 11.8793H233.839C232.235 11.8793 230.967 12.4458 230.035 13.5788C229.156 14.6603 228.56 16.3598 228.25 18.6773L228.017 20.4541ZM254.903 25.3981C254.8 25.9131 254.515 26.1706 254.049 26.1706H248.771C248.564 26.1706 248.46 26.2736 248.46 26.4796L245.744 48.1868C245.692 48.5473 245.666 49.0623 245.666 49.7318C245.666 51.2253 245.976 52.2553 246.597 52.8218C247.218 53.3883 248.176 53.6458 249.47 53.5943H250.168C250.686 53.5943 250.893 53.8518 250.789 54.3668L250.246 59.3108C250.194 59.5168 250.091 59.6971 249.935 59.8516C249.78 60.0061 249.599 60.0833 249.392 60.0833H247.063C244.165 60.0833 241.966 59.5941 240.465 58.6156C239.016 57.5856 238.292 55.7058 238.292 52.9763C238.292 52.5643 238.343 51.8433 238.447 50.8133L241.474 26.4796C241.474 26.2736 241.371 26.1706 241.164 26.1706H238.292C238.033 26.1706 237.826 26.0933 237.671 25.9388C237.567 25.7843 237.541 25.6041 237.593 25.3981L238.059 21.5356C238.162 21.0206 238.447 20.7631 238.913 20.7631H241.862C242.069 20.7631 242.173 20.6601 242.173 20.4541L243.26 11.7248C243.363 11.2098 243.648 10.9523 244.113 10.9523H249.625C250.142 10.9523 250.349 11.2098 250.246 11.7248L249.237 20.4541C249.185 20.5056 249.185 20.5828 249.237 20.6858C249.288 20.7373 249.366 20.7631 249.47 20.7631H254.748C255.266 20.7631 255.473 21.0206 255.369 21.5356L254.903 25.3981Z" fill="#FFFFEE"/>
<mask id="mask0_7_101" style="mask-type:luminance" maskUnits="userSpaceOnUse" x="0" y="0" width="104" height="103">
<path d="M103.5 0H0V103H103.5V0Z" fill="white"/>
</mask>
<g mask="url(#mask0_7_101)">
<path d="M102.025 0.0161133L52.784 0.417383C23.9862 0.654498 0.833369 24.0827 1.06409 52.7542C1.30235 81.2745 24.6082 104.236 53.2001 104.236H53.6368C80.8346 104.013 102.699 81.8872 102.481 54.8196L102.025 0.0161133ZM89.5858 54.3336C89.6656 64.0574 85.9245 73.2352 79.0568 80.1887C72.1902 87.1369 63.0294 91.0123 53.2605 91.0906H52.9295C42.586 91.0906 32.843 87.0972 25.4999 79.8475C18.1437 72.5839 14.0458 62.9126 13.966 52.6094C13.8733 42.2472 17.8527 32.4708 25.1495 25.0762C32.4538 17.6871 42.2086 13.5756 52.6255 13.4834L89.2494 13.1937L89.5858 54.3336Z" fill="#FF6600"/>
</g>
</svg>
